<svg xmlns="http://www.w3.org/2000/svg" xmlns:xlink="http://www.w3.org/1999/xlink" version="1.1" x="0px" y="0px" viewBox="0 0 69.375 70.71875" enable-background="new 0 0 69.375 69.375" xml:space="preserve"><g><path d="M34.687,13.061c-11.945,0.002-21.623,9.682-21.625,21.627c0.002,11.943,9.68,21.623,21.625,21.625   c11.944-0.002,21.623-9.682,21.623-21.625C56.31,22.743,46.631,13.063,34.687,13.061z M34.687,51.312   c-9.181-0.017-16.609-7.444-16.625-16.624c0.016-9.181,7.444-16.608,16.625-16.625c9.181,0.017,16.606,7.444,16.625,16.625   C51.293,43.867,43.868,51.295,34.687,51.312z"/><circle cx="34.687" cy="4" r="4"/><circle cx="34.687" cy="65.375" r="4"/><circle cx="65.375" cy="34.688" r="4"/><circle cx="4" cy="34.688" r="4"/><circle cx="56.386" cy="12.988" r="4"/><circle cx="12.988" cy="56.386" r="4"/><circle cx="56.385" cy="56.387" r="4"/><circle cx="12.987" cy="12.988" r="4"/></g></svg>