<svg xmlns:dc="http://purl.org/dc/elements/1.1/" xmlns:cc="http://creativecommons.org/ns#" xmlns:rdf="http://www.w3.org/1999/02/22-rdf-syntax-ns#" xmlns:svg="http://www.w3.org/2000/svg" xmlns="http://www.w3.org/2000/svg" xmlns:sodipodi="http://sodipodi.sourceforge.net/DTD/sodipodi-0.dtd" xmlns:inkscape="http://www.inkscape.org/namespaces/inkscape" version="1.1" x="0px" y="0px" viewBox="0 0 100 125"><g transform="translate(0,-952.36218)"><path d="m 46.53121,1036.3113 44.00005,10.0034 c 1.1691,0.2819 2.4645,-0.7351 2.4687,-1.9381 l 0,-84.02889 c 0,-1.20302 -1.2996,-2.21999 -2.4687,-1.93817 l -44.00005,10.00344 c -0.86248,0.20807 -1.52817,1.05066 -1.53125,1.93816 l 0,14.00482 c -0.0149,1.05699 0.94327,2.02918 2,2.02918 1.0567,0 2.0149,-0.97219 2,-2.02918 l 0,-12.41052 40,-9.09687 0,79.02713 -40,-9.0969 0,-12.4105 c 0.015,-1.057 -0.9433,-2.0291 -2,-2.0291 -1.05673,0 -2.01494,0.9721 -2,2.0291 l 0,14.0048 c 0.0442,1.0534 0.68563,1.6666 1.53125,1.9382 z" style="text-indent:0;text-transform:none;direction:ltr;block-progression:tb;baseline-shift:baseline;color:#000000;enable-background:accumulate;" fill="#000000" fill-opacity="1" stroke="none" marker="none" visibility="visible" display="inline" overflow="visible"/><path d="m 80.99986,1002.3622 c 0,0.4628 -0.2799,1.0773 -0.5639,1.3755 l -15.9997,17.0003 c -0.747,0.7723 -1.9572,0.8618 -2.8281,0.078 -0.7786,-0.7007 -0.798,-2.0673 -0.078,-2.8282 l 12.8435,-13.6252 -65.37361,0 c -1.1046,0 -2,-0.8954 -2,-2 0,-1.1046 0.8954,-2.0001 2,-2.0001 l 65.37361,0 -12.8435,-13.62523 c -0.7199,-0.7608 -0.6688,-2.0938 0.078,-2.8281 0.7885,-0.7752 2.0925,-0.7062 2.8281,0.078 l 15.9997,17.00023 c 0.4701,0.4611 0.556,0.9052 0.5639,1.3748 z" style="text-indent:0;text-transform:none;direction:ltr;block-progression:tb;baseline-shift:baseline;color:#000000;enable-background:accumulate;" fill="#000000" fill-opacity="1" stroke="none" marker="none" visibility="visible" display="inline" overflow="visible"/></g></svg>