<svg xmlns="http://www.w3.org/2000/svg" xmlns:xlink="http://www.w3.org/1999/xlink" version="1.1" x="0px" y="0px" viewBox="0 0 69.375 70.71875" enable-background="new 0 0 69.375 69.375" xml:space="preserve"><g><path d="M34.688,56.313c11.945-0.002,21.623-9.682,21.625-21.626c-0.002-11.943-9.68-21.623-21.625-21.625   c-11.944,0.002-21.623,9.682-21.623,21.625C13.064,46.632,22.743,56.312,34.688,56.313z M34.688,51.312   c-9.181-0.017-16.606-7.443-16.625-16.625c0.019-9.179,7.444-16.607,16.625-16.624V51.312z"/><circle cx="34.688" cy="65.375" r="4"/><circle cx="34.688" cy="4" r="4"/><circle cx="4" cy="34.687" r="4"/><circle cx="65.375" cy="34.688" r="4"/><circle cx="12.988" cy="56.387" r="4"/><circle cx="56.386" cy="12.989" r="4"/><circle cx="12.989" cy="12.988" r="4"/><circle cx="56.387" cy="56.387" r="4"/></g></svg>