<svg xmlns="http://www.w3.org/2000/svg" xmlns:xlink="http://www.w3.org/1999/xlink" version="1.1" x="0px" y="0px" viewBox="0 0 24 24" style="enable-background:new 0 0 24 24;" xml:space="preserve"><g><path d="M14.157,5.301c-0.148-0.044-0.304,0.041-0.348,0.189c-0.044,0.148,0.04,0.304,0.189,0.348   c2.947,0.875,5.005,3.636,5.005,6.714c0,3.861-3.141,7.003-7.003,7.003s-7.003-3.141-7.003-7.003c0-3.068,2.05-5.826,4.985-6.708   c0.148-0.044,0.232-0.201,0.188-0.349c-0.044-0.148-0.201-0.232-0.349-0.188c-3.17,0.952-5.385,3.931-5.384,7.244   c0,4.17,3.393,7.563,7.563,7.563s7.563-3.393,7.563-7.563C19.563,9.228,17.34,6.247,14.157,5.301z"/><path d="M12,13.185c0.155,0,0.28-0.125,0.28-0.28V4.166c0-0.155-0.125-0.28-0.28-0.28s-0.28,0.125-0.28,0.28v8.739   C11.72,13.059,11.845,13.185,12,13.185z"/></g></svg>