<?xml version="1.0" encoding="UTF-8" standalone="no"?>
<svg
   xmlns:dc="http://purl.org/dc/elements/1.1/"
   xmlns:cc="http://creativecommons.org/ns#"
   xmlns:rdf="http://www.w3.org/1999/02/22-rdf-syntax-ns#"
   xmlns:svg="http://www.w3.org/2000/svg"
   xmlns="http://www.w3.org/2000/svg"
   xmlns:sodipodi="http://sodipodi.sourceforge.net/DTD/sodipodi-0.dtd"
   xmlns:inkscape="http://www.inkscape.org/namespaces/inkscape"
   xml:space="preserve"
   version="1.1"
   style="shape-rendering:geometricPrecision;text-rendering:geometricPrecision;image-rendering:optimizeQuality;"
   viewBox="0 0 291 250"
   x="0px"
   y="0px"
   fill-rule="evenodd"
   clip-rule="evenodd"
   id="svg3713"
   sodipodi:docname="tv-centered.svg"
   inkscape:version="0.92.0 r15299"><metadata
     id="metadata3717"><rdf:RDF><cc:Work
         rdf:about=""><dc:format>image/svg+xml</dc:format><dc:type
           rdf:resource="http://purl.org/dc/dcmitype/StillImage" /><dc:title></dc:title></cc:Work></rdf:RDF></metadata><sodipodi:namedview
     pagecolor="#ffffff"
     bordercolor="#666666"
     borderopacity="1"
     objecttolerance="10"
     gridtolerance="10"
     guidetolerance="10"
     inkscape:pageopacity="0"
     inkscape:pageshadow="2"
     inkscape:window-width="4096"
     inkscape:window-height="2179"
     id="namedview3715"
     showgrid="false"
     inkscape:zoom="7.608"
     inkscape:cx="145.5"
     inkscape:cy="130.25762"
     inkscape:window-x="-13"
     inkscape:window-y="-13"
     inkscape:window-maximized="1"
     inkscape:current-layer="svg3713" /><defs
     id="defs3707"><style
       type="text/css"
       id="style3680">
   
    .glow path{
    fill: rgba(255, 255, 0, 255);
    stroke: #fff;
    filter:url(#outline-glow);
    cursor:pointer;
    }  
   
  </style><filter
       id="outside-glow"
       x="-40%"
       y="-40%"
       width="180%"
       height="180%"><feFlood
         flood-color="#fafdd9"
         result="flood1"
         id="feFlood3682" /><feComposite
         in="flood1"
         in2="SourceGraphic"
         operator="in"
         result="floodShape"
         id="feComposite3684" /><feGaussianBlur
         in="floodShape"
         stdDeviation="3"
         result="blur"
         id="feGaussianBlur3686" /><feFlood
         flood-color="#deeb45"
         result="flood2"
         id="feFlood3688" /><feComposite
         in="flooder2"
         in2="SourceGraphic"
         operator="in"
         result="floodShape2"
         id="feComposite3690" /><feGaussianBlur
         in="floodShape2"
         stdDeviation="17"
         result="blur2"
         id="feGaussianBlur3692" /><feMerge
         result="blurs"
         id="feMerge3702"><feMergeNode
           in="blur2"
           id="feMergeNode3694" /><feMergeNode
           in="blur2"
           id="feMergeNode3696" /><feMergeNode
           in="blur"
           id="feMergeNode3698" /><feMergeNode
           in="blur"
           id="feMergeNode3700" /></feMerge><feComposite
         in="blurs"
         in2="SourceGraphic"
         operator="out"
         id="feComposite3704" /></filter></defs><g
     class="glow"
     id="g3711"
     transform="matrix(0.7561005,0,0,0.72109446,37.196105,39.43481)"><path
       d="m 22,0 h 247 c 6,0 12,2 16,7 4,4 6,9 6,15 v 154 c 0,6 -2,12 -6,16 v 0 c -4,4 -10,6 -16,6 H 22 C 16,198 11,196 7,192 2,188 0,182 0,176 V 22 C 0,16 2,11 7,7 V 7 C 11,2 16,0 22,0 Z m 79,230 c -5,0 -9,-4 -9,-9 0,-5 4,-9 9,-9 h 89 c 5,0 9,4 9,9 0,5 -4,9 -9,9 z M 269,18 H 22 c -1,0 -2,1 -3,1 v 0 c 0,1 -1,2 -1,3 v 154 c 0,1 1,2 1,3 1,1 2,1 3,1 h 247 c 1,0 2,0 3,-1 v 0 c 0,-1 1,-2 1,-3 V 22 c 0,-1 -1,-2 -1,-3 -1,0 -2,-1 -3,-1 z"
       id="path3709"
       inkscape:connector-curvature="0"
       style="stroke:#ffffff;filter:url(#outline-glow)" /></g></svg>